<svg width="160" height="143" viewBox="0 0 160 143" fill="none" xmlns="http://www.w3.org/2000/svg">
<g clip-path="url(#clip0_319_1006)">
<path d="M80.247 58.959C80.007 60.5563 79.8069 62.2734 79.5269 63.9506C79.1668 65.9073 78.2067 66.666 76.3265 66.3066C64.3251 64.0305 54.1239 67.6643 45.2828 75.7707C44.8428 76.17 44.4027 76.5693 43.9626 76.9686C43.9226 77.0086 43.8426 77.0086 43.4426 77.1683C43.8026 76.5294 43.9626 76.13 44.2427 75.7707C51.4435 66.5862 60.8047 61.5147 72.5661 61.2751C74.3263 61.2352 74.8463 60.756 74.8863 59.0389C74.9263 56.1238 75.2064 53.2087 75.5264 50.2937C75.6464 49.0558 75.2064 48.4568 74.1262 48.0175C71.3259 46.7796 68.4056 46.8595 65.4852 47.4185C59.4845 48.6165 54.2439 51.5316 49.1633 54.7262C45.7229 56.8825 42.1224 58.4798 38.0819 59.0788C29.761 60.3167 22.8001 55.1255 22.08 47.0991C21.6 41.9078 24.8404 36.8364 29.761 35.5186C29.0809 36.1176 28.7208 36.5169 28.3208 36.8364C24.6804 39.9112 23.6402 44.6232 25.6005 48.896C27.4807 53.0091 31.5612 55.0456 36.3617 54.3269C40.3622 53.7279 43.6826 51.5715 46.923 49.3752C53.0437 45.2622 59.5645 41.9078 67.0854 41.229C71.6059 40.7897 75.8465 41.6682 79.4869 44.5434C81.0071 45.7413 81.8072 47.1789 81.3671 49.2155C81.0471 50.7729 81.0071 52.3702 80.847 53.9275C87.3278 55.2054 93.9286 50.3735 95.0087 43.7048C96.2089 36.1975 92.5684 30.2076 84.6875 26.8532C78.9268 24.3774 73.0461 24.3774 67.1254 26.4539C62.0448 28.2509 56.9242 30.0079 51.4435 30.0478C49.7633 30.0478 48.0431 30.0478 46.643 28.5304C54.4039 28.2509 60.5646 23.9781 67.5255 21.7019C62.0448 15.1929 51.8036 13.1564 44.2027 16.6305C37.8419 19.5456 32.0012 27.6918 35.0016 39.7914C34.8416 39.8313 34.6815 39.9112 34.5215 39.9511C33.9215 37.8347 33.0013 35.7582 32.7613 33.5619C31.0811 17.1097 44.6827 9.4027 56.3641 11.2396C62.4048 12.2379 67.6455 14.7936 71.4459 19.7852C71.806 20.2244 72.8061 20.3842 73.4862 20.3442C82.0872 19.6254 89.5681 22.1013 95.6088 28.3707C101.289 34.3206 101.85 41.3088 98.8492 48.5766C95.9288 55.6846 89.9681 58.4399 82.6073 58.7594C82.0072 58.7993 81.4071 58.7594 80.807 58.7993C80.687 58.7594 80.567 58.8392 80.247 58.959Z" fill="#FF6B00"/>
</g>
<path d="M68.5179 72.7597C69.0552 72.7597 69.6522 72.8044 70.3089 72.8938C70.9806 72.9832 71.6373 73.1321 72.2791 73.3407C72.9358 73.5493 73.5402 73.8249 74.0925 74.1676C74.6447 74.4953 75.0701 74.9125 75.3686 75.419C75.7417 75.6872 76.0775 76.082 76.376 76.6034C76.6447 77.1696 76.779 77.7059 76.779 78.2124C76.779 78.7786 76.6745 79.3 76.4656 79.7767C76.2715 80.2535 76.0178 80.6855 75.7044 81.0729C75.3909 81.4602 75.0477 81.8029 74.6745 82.1008C74.3163 82.3988 73.9656 82.6521 73.6223 82.8607C73.279 83.0543 72.9805 83.2033 72.7268 83.3076C72.4731 83.4119 72.3089 83.464 72.2343 83.464C72.1597 83.464 72.0328 83.4268 71.8537 83.3523C71.6895 83.2778 71.5253 83.1884 71.3612 83.0841C71.1671 82.9798 70.9582 82.8532 70.7343 82.7042C70.7343 82.6893 70.8761 82.5999 71.1597 82.4361C71.4433 82.2722 71.7567 82.0189 72.1 81.6762C72.4582 81.3336 72.779 80.8866 73.0626 80.3354C73.3462 79.7693 73.488 79.0765 73.488 78.2571C73.3537 77.989 73.1671 77.7357 72.9283 77.4973C72.6895 77.244 72.3835 77.028 72.0104 76.8492C71.6373 76.6556 71.1821 76.4991 70.6448 76.3799C70.1224 76.2608 69.4955 76.2012 68.7642 76.2012C68.5105 76.2012 68.1224 76.2384 67.6 76.3129C67.0777 76.3874 66.4732 76.5215 65.7866 76.7152C65.1001 76.9088 64.3538 77.177 63.5479 77.5197C62.7568 77.8474 61.9583 78.2869 61.1524 78.8381C60.3614 79.3745 59.5927 80.03 58.8465 80.8047C58.1151 81.5645 57.4659 82.4659 56.8987 83.5087C56.3316 84.5367 55.8764 85.7211 55.5331 87.0619C55.2047 88.4028 55.0406 89.9224 55.0406 91.6208C55.0406 92.5445 55.1152 93.3862 55.2644 94.146C55.4137 94.8909 55.6077 95.5688 55.8465 96.1796C56.1002 96.7756 56.3913 97.3119 56.7196 97.7886C57.048 98.2505 57.3913 98.6676 57.7495 99.0401C57.9733 99.1593 58.2271 99.3157 58.5106 99.5094C58.7942 99.6881 59.1748 99.8669 59.6524 100.046C60.1449 100.21 60.7718 100.359 61.533 100.493C62.2942 100.612 63.2643 100.671 64.4434 100.671C65.4583 100.671 66.4209 100.552 67.3314 100.314C68.2567 100.075 69.1149 99.7701 69.906 99.3976C70.7119 99.0252 71.4507 98.6155 72.1223 98.1685C72.794 97.7067 73.3835 97.2597 73.891 96.8277C74.4133 96.3807 74.8462 95.9785 75.1895 95.6209C75.5327 95.2485 75.7715 94.9654 75.9059 94.7717C76.1894 94.3844 76.3909 94.1386 76.5103 94.0343C76.6297 93.9151 76.7342 93.8555 76.8238 93.8555C76.8984 93.8555 76.9655 93.863 77.0252 93.8779C77.0999 93.8928 77.1745 93.9002 77.2491 93.9002C77.3834 93.9002 77.4655 93.8332 77.4954 93.6991C77.5252 93.565 77.5625 93.498 77.6073 93.498C77.6372 93.498 77.6596 93.5575 77.6745 93.6767C77.6894 93.7959 77.6969 93.9375 77.6969 94.1013C77.6969 94.1907 77.6894 94.2801 77.6745 94.3695C77.6596 94.444 77.6521 94.5185 77.6521 94.593C77.6372 94.6824 77.57 94.9878 77.4506 95.5092C77.3461 96.0157 77.1372 96.6266 76.8238 97.3417C76.5252 98.0419 76.0999 98.7943 75.5477 99.5988C74.9954 100.403 74.279 101.148 73.3984 101.833C72.5328 102.519 71.4731 103.085 70.2194 103.532C68.9657 103.979 67.4881 104.202 65.7866 104.202C64.7568 104.202 63.8016 104.113 62.921 103.934C62.0554 103.74 61.2718 103.51 60.5703 103.241C59.8838 102.958 59.2718 102.653 58.7345 102.325C58.1972 101.982 57.7495 101.662 57.3913 101.364C56.6301 100.932 55.8987 100.381 55.1973 99.7105C54.4958 99.0401 53.8764 98.2356 53.3391 97.297C52.8018 96.3584 52.369 95.2708 52.0406 94.0343C51.7272 92.7828 51.5705 91.3675 51.5705 89.7883C51.5705 88.2091 51.7794 86.6895 52.1973 85.2295C52.6152 83.7694 53.1973 82.4063 53.9436 81.1399C54.7047 79.8736 55.6077 78.7264 56.6525 77.6984C57.6972 76.6705 58.8465 75.7915 60.1002 75.0615C61.3539 74.3314 62.6897 73.7653 64.1076 73.3631C65.5404 72.9608 67.0105 72.7597 68.5179 72.7597Z" fill="white"/>
<path d="M93.0548 89.0062C93.0847 89.2147 93.107 89.4531 93.122 89.7213C93.1369 89.9745 93.1444 90.2427 93.1444 90.5258C93.1444 91.2409 93.1145 92.0752 93.0548 93.0287C92.9951 93.9821 92.9205 95.1144 92.8309 96.4254C92.8011 96.932 92.7787 97.5801 92.7638 98.3697C92.7488 99.1444 92.7414 99.9489 92.7414 100.783C92.7414 101.498 92.7488 102.191 92.7638 102.861C92.7936 103.532 92.8309 104.12 92.8757 104.627C92.9056 104.85 92.8533 104.97 92.719 104.984C92.5847 104.999 92.4354 104.984 92.2712 104.94C92.1966 104.91 92.1295 104.91 92.0698 104.94C92.01 104.97 91.9504 105.007 91.8907 105.051C91.8459 105.096 91.7936 105.126 91.7339 105.141C91.6892 105.171 91.622 105.148 91.5324 105.074C91.4578 105.014 91.331 104.925 91.1519 104.806C90.9728 104.686 90.7787 104.552 90.5698 104.403C90.3758 104.269 90.1892 104.12 90.0101 103.956C89.831 103.793 89.6967 103.644 89.6071 103.51C89.5176 103.301 89.4579 102.787 89.428 101.968C89.3982 101.148 89.3832 100.157 89.3832 98.9954V95.9785C89.3982 95.323 89.428 94.6749 89.4728 94.0343C89.5176 93.3937 89.5698 92.7754 89.6295 92.1795C89.6892 91.5835 89.7414 91.0249 89.7862 90.5034C89.831 89.9671 89.8534 89.4829 89.8534 89.0508C89.8534 88.3655 89.7564 87.8515 89.5623 87.5089C89.5176 87.4493 89.3832 87.4865 89.1594 87.6206C88.9355 87.7547 88.6444 88.0378 88.2862 88.4698C87.943 88.9019 87.5474 89.5127 87.0997 90.3023C86.6669 91.0919 86.2042 92.1124 85.7117 93.3639C85.2341 94.6153 84.7415 96.1275 84.2341 97.9004C83.7415 99.6732 83.2714 101.759 82.8236 104.158C82.7789 104.366 82.7192 104.508 82.6445 104.582C82.5848 104.672 82.4654 104.716 82.2863 104.716C82.1669 104.716 82.0625 104.619 81.9729 104.426C81.8983 104.247 81.8013 104.098 81.6819 103.979C81.3983 103.979 81.1371 103.949 80.8983 103.889C80.6744 103.815 80.5401 103.629 80.4953 103.331C80.4953 103.226 80.4655 103.13 80.4058 103.04C80.361 102.951 80.3013 102.854 80.2267 102.75C80.167 102.631 80.1073 102.511 80.0476 102.392C80.0028 102.258 79.9804 102.102 79.9804 101.923C80.0252 100.88 80.0625 99.7477 80.0924 98.5261C80.1222 97.2895 80.1521 96.0306 80.1819 94.7494C80.2267 93.4533 80.264 92.1571 80.2938 90.861C80.3237 89.5648 80.361 88.3283 80.4058 87.1513C80.4506 85.9595 80.4879 84.857 80.5177 83.8439C80.5625 82.816 80.6147 81.9295 80.6744 81.1846C80.8535 78.9648 81.0326 77.2217 81.2117 75.9554C81.3908 74.6741 81.5028 73.9292 81.5476 73.7206C81.5923 73.5716 81.6371 73.4599 81.6819 73.3854C81.7267 73.3109 81.764 73.2588 81.7938 73.229C81.8386 73.1992 81.8684 73.1768 81.8834 73.1619C81.9132 73.147 81.9356 73.1098 81.9505 73.0502C81.9804 72.9906 82.0326 72.9608 82.1072 72.9608C82.1968 72.9459 82.2938 72.9459 82.3983 72.9608C82.5028 72.9608 82.5998 72.9608 82.6893 72.9608C82.7789 72.9459 82.8535 72.9087 82.9132 72.8491C83.0326 72.7597 83.1296 72.6852 83.2042 72.6256C83.2938 72.566 83.443 72.5362 83.652 72.5362C83.9057 72.5064 84.0997 72.5139 84.2341 72.5586C84.3684 72.5884 84.4505 72.7299 84.4803 72.9832C84.5251 73.445 84.54 74.0484 84.5251 74.7933C84.5102 75.5382 84.4729 76.3576 84.4132 77.2515C84.3535 78.1454 84.2863 79.0914 84.2117 80.0896C84.1371 81.0729 84.055 82.0413 83.9654 82.9947C83.8908 83.9482 83.8162 84.857 83.7415 85.7211C83.6818 86.5703 83.6371 87.3003 83.6072 87.9111C83.5774 88.2538 83.555 88.6709 83.5401 89.1626C83.5401 89.6393 83.5401 90.1608 83.5401 90.7269C83.5401 91.2781 83.5401 91.8592 83.5401 92.47C83.5401 93.0659 83.5326 93.6544 83.5177 94.2354C83.9803 92.8052 84.4803 91.5612 85.0176 90.5034C85.5549 89.4307 86.0922 88.5369 86.6296 87.8217C87.1669 87.1066 87.6818 86.5629 88.1743 86.1904C88.6818 85.8179 89.1295 85.6019 89.5176 85.5423C89.6071 85.5274 89.7638 85.5498 89.9877 85.6094C90.2265 85.669 90.4728 85.736 90.7265 85.8105C90.9802 85.885 91.2116 85.9669 91.4205 86.0563C91.6295 86.1308 91.7489 86.1829 91.7787 86.2127C91.8384 86.2872 91.928 86.3915 92.0474 86.5256C92.1668 86.6448 92.2862 86.8087 92.4056 87.0172C92.5399 87.2258 92.6593 87.494 92.7638 87.8217C92.8832 88.1495 92.9802 88.5443 93.0548 89.0062Z" fill="white"/>
<path d="M111.637 95.8668C111.637 96.0306 111.644 96.2243 111.659 96.4478C111.674 96.6713 111.681 96.9245 111.681 97.2076C111.681 97.5652 111.629 98.0121 111.525 98.5484C111.42 99.0699 111.249 99.6211 111.01 100.202C110.786 100.783 110.48 101.364 110.092 101.945C109.704 102.526 109.226 103.048 108.659 103.51C108.092 103.971 107.42 104.344 106.644 104.627C105.883 104.925 105.01 105.074 104.025 105.074C103.144 105.074 102.241 104.903 101.316 104.56C100.405 104.232 99.5696 103.718 98.8084 103.018C98.0622 102.303 97.4428 101.401 96.9503 100.314C96.4727 99.2114 96.2339 97.9004 96.2339 96.3807C96.2339 95.4273 96.3533 94.4887 96.5921 93.565C96.8458 92.6413 97.1741 91.7698 97.5771 90.9504C97.995 90.131 98.4801 89.3786 99.0323 88.6933C99.5995 87.9931 100.189 87.3972 100.801 86.9055C101.428 86.399 102.07 86.0042 102.726 85.7211C103.398 85.438 104.047 85.2965 104.674 85.2965C105.764 85.2965 106.659 85.4678 107.361 85.8105C108.077 86.1532 108.644 86.5777 109.062 87.0843C109.48 87.5908 109.771 88.1346 109.935 88.7156C110.114 89.2818 110.204 89.7958 110.204 90.2576C110.204 90.7045 110.092 91.2185 109.868 91.7996C109.659 92.3657 109.308 92.9095 108.816 93.4309C108.323 93.9374 107.681 94.3695 106.89 94.7271C106.099 95.0697 105.129 95.241 103.98 95.241C103.368 95.241 102.816 95.1591 102.323 94.9952C101.846 94.8164 101.42 94.6004 101.047 94.3471C100.674 94.079 100.353 93.7959 100.085 93.498C99.8308 93.1851 99.6144 92.8946 99.4353 92.6264C99.1666 93.5501 99.0323 94.6302 99.0323 95.8668C99.0323 96.716 99.1517 97.4832 99.3905 98.1685C99.6442 98.8389 99.9875 99.4125 100.42 99.8893C100.853 100.366 101.368 100.731 101.965 100.984C102.562 101.238 103.219 101.364 103.935 101.364C104.831 101.364 105.614 101.215 106.286 100.917C106.958 100.604 107.54 100.217 108.032 99.7552C108.54 99.2933 108.972 98.7943 109.331 98.2579C109.704 97.7067 110.025 97.2076 110.293 96.7607C110.562 96.2988 110.793 95.9189 110.987 95.6209C111.196 95.323 111.398 95.1814 111.592 95.1963C111.681 95.1963 111.726 95.2708 111.726 95.4198C111.726 95.4943 111.719 95.5688 111.704 95.6433C111.689 95.7178 111.666 95.7923 111.637 95.8668ZM104.898 87.5536C104.629 87.5536 104.278 87.6132 103.846 87.7324C103.428 87.8366 102.98 88.0303 102.502 88.3134C102.04 88.5965 101.577 88.9838 101.114 89.4754C100.652 89.9522 100.249 90.563 99.9054 91.3079C100.114 91.2036 100.293 91.1142 100.443 91.0398C100.607 90.9653 100.719 90.928 100.779 90.928C100.808 90.928 100.853 90.9578 100.913 91.0174C101.256 91.5984 101.682 92.0156 102.189 92.2689C102.711 92.5072 103.293 92.6264 103.935 92.6264C104.443 92.6264 104.875 92.5445 105.234 92.3806C105.607 92.2018 105.913 91.9783 106.152 91.7102C106.39 91.442 106.562 91.1515 106.667 90.8386C106.771 90.5109 106.823 90.1906 106.823 89.8777C106.823 89.2073 106.652 88.656 106.308 88.224C105.965 87.7771 105.495 87.5536 104.898 87.5536Z" fill="white"/>
<path d="M126.39 89.4754C126.121 89.4754 125.741 89.4978 125.248 89.5425C124.756 89.5872 124.204 89.6468 123.592 89.7213C122.995 89.7809 122.368 89.8628 121.711 89.9671C121.069 90.0565 120.457 90.1533 119.875 90.2576C119.845 91.0621 119.816 91.9113 119.786 92.8052C119.771 93.6991 119.748 94.6004 119.719 95.5092C119.704 96.418 119.681 97.3044 119.651 98.1685C119.636 99.0177 119.622 99.8073 119.607 100.537C119.592 101.267 119.584 101.908 119.584 102.459C119.584 102.996 119.592 103.398 119.607 103.666C119.636 104.321 119.622 104.768 119.562 105.007C119.502 105.245 119.42 105.379 119.316 105.409C119.211 105.454 119.099 105.431 118.98 105.342C118.86 105.253 118.763 105.193 118.689 105.163C118.614 105.148 118.554 105.186 118.51 105.275C118.48 105.364 118.45 105.461 118.42 105.565C118.39 105.685 118.353 105.789 118.308 105.878C118.263 105.983 118.189 106.02 118.084 105.99C117.905 105.945 117.681 105.811 117.413 105.588C117.144 105.379 116.928 105.119 116.763 104.806C116.674 104.642 116.607 104.456 116.562 104.247C116.517 104.053 116.457 103.845 116.383 103.621C116.353 103.472 116.323 103.256 116.293 102.973C116.278 102.69 116.263 102.355 116.248 101.968C116.234 101.58 116.219 101.148 116.204 100.671C116.204 100.195 116.204 99.6956 116.204 99.1742C116.204 98.4739 116.204 97.7514 116.204 97.0065C116.219 96.2616 116.234 95.5316 116.248 94.8164C116.263 94.0864 116.278 93.3937 116.293 92.7381C116.308 92.0826 116.323 91.4941 116.338 90.9727C116.039 91.0472 115.681 91.144 115.263 91.2632C114.86 91.3675 114.383 91.5016 113.831 91.6655C113.622 91.74 113.472 91.7251 113.383 91.6208C113.293 91.5165 113.316 91.3154 113.45 91.0174C113.495 90.9429 113.487 90.8833 113.428 90.8386C113.368 90.7939 113.293 90.7567 113.204 90.7269C113.129 90.6822 113.054 90.6375 112.98 90.5928C112.905 90.5481 112.868 90.4811 112.868 90.3917C112.868 90.3023 112.883 90.198 112.913 90.0788C112.928 89.9596 112.972 89.8777 113.047 89.833C113.211 89.7436 113.547 89.5574 114.054 89.2743C114.562 88.9764 115.308 88.6784 116.293 88.3804C116.278 86.6224 116.383 85.0581 116.607 83.6875C116.831 82.3169 117.129 81.1176 117.502 80.0896C117.89 79.0467 118.338 78.1603 118.845 77.4303C119.368 76.7003 119.905 76.0969 120.457 75.6201C121.024 75.1434 121.592 74.7784 122.159 74.5251C122.741 74.2719 123.293 74.1005 123.815 74.0111C124.532 73.8771 125.166 73.9441 125.718 74.2123C126.286 74.4804 126.756 74.8603 127.129 75.352C127.502 75.8287 127.786 76.3725 127.98 76.9833C128.174 77.5793 128.271 78.1528 128.271 78.7041C128.271 79.3745 128.233 79.9704 128.159 80.4918C128.084 80.9984 127.994 81.4379 127.89 81.8103C127.8 82.1679 127.696 82.4659 127.577 82.7042C127.472 82.9277 127.383 83.0916 127.308 83.1959C127.174 83.4491 127.039 83.6503 126.905 83.7992C126.786 83.9482 126.689 83.978 126.614 83.8886C126.524 83.8141 126.427 83.762 126.323 83.7322C126.218 83.6875 126.114 83.6428 126.009 83.5981C125.92 83.5534 125.845 83.5013 125.786 83.4417C125.726 83.3821 125.696 83.2853 125.696 83.1512C125.696 83.0916 125.666 83.0543 125.606 83.0394C125.562 83.0245 125.509 83.0096 125.45 82.9947C125.405 82.9649 125.36 82.9277 125.315 82.883C125.271 82.8383 125.263 82.7638 125.293 82.6595C125.472 81.7954 125.562 80.9537 125.562 80.1343C125.562 79.4639 125.495 78.853 125.36 78.3018C125.241 77.7357 125.054 77.2589 124.801 76.8716C124.562 76.4693 124.256 76.1863 123.883 76.0224C123.524 75.8436 123.107 75.8138 122.629 75.933C122.301 76.0075 121.98 76.3129 121.666 76.8492C121.368 77.3856 121.092 78.1454 120.838 79.1287C120.599 80.1119 120.398 81.3112 120.233 82.7266C120.069 84.127 119.965 85.736 119.92 87.5536C121.159 87.3152 122.674 87.129 124.465 86.9949C124.644 86.98 124.786 86.9949 124.89 87.0396C124.995 87.0694 125.092 87.1215 125.181 87.196C125.271 87.2705 125.36 87.3674 125.45 87.4865C125.554 87.6057 125.681 87.7473 125.83 87.9111C125.98 88.075 126.129 88.2538 126.278 88.4475C126.427 88.6262 126.539 88.7976 126.614 88.9615C126.689 89.1104 126.711 89.2371 126.681 89.3414C126.666 89.4456 126.569 89.4903 126.39 89.4754Z" fill="white"/>
<path d="M141.211 86.4586C141.255 86.548 141.278 86.6373 141.278 86.7267C141.293 86.8161 141.3 86.9204 141.3 87.0396C141.3 87.5163 141.047 88.0154 140.539 88.5369C140.047 89.0583 139.263 89.535 138.188 89.9671C137.964 90.0565 137.763 90.1012 137.584 90.1012C137.36 90.1012 137.166 90.0416 137.002 89.9224C136.853 89.7883 136.778 89.6542 136.778 89.5201C136.778 89.4308 136.83 89.3265 136.935 89.2073C137.054 89.0881 137.173 88.9689 137.293 88.8497C137.427 88.7305 137.547 88.6188 137.651 88.5145C137.77 88.4102 137.83 88.3283 137.83 88.2687C137.83 88.1495 137.733 88.0899 137.539 88.0899C137.241 88.0899 136.86 88.1793 136.397 88.3581C135.935 88.522 135.442 88.7454 134.92 89.0285C134.412 89.2967 133.89 89.5946 133.353 89.9224C132.83 90.2353 132.36 90.5481 131.942 90.861C131.524 91.1589 131.181 91.4271 130.912 91.6655C130.659 91.9038 130.532 92.0752 130.532 92.1795C130.532 92.2391 130.591 92.2689 130.711 92.2689H131.36C131.763 92.2689 132.278 92.2912 132.905 92.3359C133.547 92.3806 134.218 92.47 134.92 92.6041C135.621 92.7232 136.323 92.902 137.024 93.1404C137.741 93.3639 138.375 93.6693 138.927 94.0566C139.494 94.444 139.957 94.9133 140.315 95.4645C140.673 96.0157 140.852 96.6713 140.852 97.4311C140.852 97.8184 140.785 98.2356 140.651 98.6825C140.532 99.1146 140.308 99.5615 139.979 100.023C139.666 100.47 139.233 100.932 138.681 101.409C138.129 101.871 137.427 102.333 136.576 102.794C135.293 103.48 134.091 103.986 132.972 104.314C131.868 104.642 130.868 104.806 129.972 104.806C128.808 104.806 127.89 104.545 127.218 104.024C126.547 103.502 126.211 102.757 126.211 101.789C126.211 101.074 126.345 100.463 126.614 99.9563C126.897 99.4498 127.226 99.0326 127.599 98.7049C127.972 98.3622 128.345 98.1164 128.718 97.9674C129.091 97.8035 129.375 97.7141 129.569 97.6992C129.659 97.6992 129.733 97.6918 129.793 97.6769C129.868 97.662 129.942 97.6545 130.017 97.6545C130.151 97.6545 130.218 97.7365 130.218 97.9004V98.1238C130.218 98.2132 130.241 98.2952 130.285 98.3697C130.33 98.4293 130.353 98.4963 130.353 98.5708C130.353 98.6602 130.241 98.7943 130.017 98.973C129.808 99.1518 129.577 99.3604 129.323 99.5988C129.069 99.8371 128.83 100.09 128.606 100.359C128.397 100.627 128.293 100.887 128.293 101.141C128.293 101.439 128.532 101.588 129.009 101.588C129.606 101.588 130.233 101.476 130.89 101.252C131.562 101.014 132.211 100.716 132.838 100.359C133.479 100.001 134.084 99.5988 134.651 99.1518C135.233 98.69 135.741 98.243 136.173 97.811C136.606 97.3789 136.95 96.9767 137.203 96.6042C137.457 96.2169 137.584 95.9115 137.584 95.688C137.584 95.4198 137.427 95.2038 137.114 95.0399C136.815 94.876 136.397 94.742 135.86 94.6377C135.338 94.5334 134.726 94.4663 134.024 94.4365C133.323 94.3918 132.584 94.3695 131.808 94.3695C131.002 94.3695 130.33 94.4067 129.793 94.4812C129.271 94.5557 128.95 94.593 128.83 94.593C128.741 94.593 128.591 94.5855 128.383 94.5706C128.189 94.5408 127.987 94.4738 127.778 94.3695C127.584 94.2503 127.412 94.079 127.263 93.8555C127.114 93.632 127.039 93.3117 127.039 92.8946C127.039 92.6115 127.099 92.2912 127.218 91.9336C127.353 91.5761 127.577 91.1962 127.89 90.7939C128.218 90.3768 128.659 89.9298 129.211 89.4531C129.778 88.9764 130.494 88.4773 131.36 87.9558C132.271 87.4046 133.121 86.9577 133.912 86.615C134.718 86.2574 135.442 85.9818 136.084 85.7881C136.741 85.5945 137.315 85.4678 137.808 85.4082C138.3 85.3338 138.688 85.2965 138.972 85.2965C139.644 85.2965 140.144 85.3859 140.472 85.5647C140.8 85.7286 141.047 86.0265 141.211 86.4586Z" fill="white"/>
<path d="M111.082 58.6098C111.479 58.5646 111.889 58.5251 112.313 58.4912C112.743 58.4573 113.145 58.4403 113.518 58.4403C113.631 58.4347 113.761 58.4291 113.909 58.4234C114.033 58.4178 114.177 58.4149 114.341 58.4149C114.511 58.4093 114.695 58.4065 114.893 58.4065C115.102 58.4065 115.323 58.4093 115.555 58.4149C115.793 58.4206 116.03 58.4291 116.268 58.4403C116.291 58.1015 116.313 57.7513 116.336 57.3899C116.358 57.0284 116.378 56.6811 116.395 56.3479C116.418 56.009 116.435 55.6984 116.446 55.416C116.463 55.128 116.477 54.888 116.489 54.6959V54.1199C116.489 53.9617 116.489 53.8064 116.489 53.6539C116.489 53.4958 116.494 53.3687 116.506 53.2727C116.545 53.0864 116.627 52.9932 116.752 52.9932C116.825 52.9932 116.882 53.0016 116.921 53.0186C116.961 53.0355 117.032 53.0666 117.134 53.1118C117.185 53.1287 117.238 53.1513 117.295 53.1795C117.357 53.2078 117.416 53.2388 117.473 53.2727C117.53 53.301 117.581 53.332 117.626 53.3659C117.671 53.3941 117.705 53.4196 117.728 53.4422C117.75 53.4647 117.779 53.5043 117.813 53.5608C117.846 53.6116 117.88 53.6681 117.914 53.7302C117.948 53.7923 117.977 53.8573 117.999 53.925C118.022 53.9872 118.03 54.0408 118.025 54.086C118.019 54.1312 118.005 54.2978 117.982 54.5858C117.96 54.8682 117.931 55.2438 117.897 55.7125C117.863 56.1756 117.827 56.715 117.787 57.3306C117.747 57.9462 117.711 58.6041 117.677 59.3044C117.626 60.434 117.6 61.3715 117.6 62.117C117.6 62.6761 117.609 63.1279 117.626 63.4724C117.648 63.8169 117.677 64.0598 117.711 64.201C117.762 64.4382 117.798 64.6076 117.821 64.7093C117.844 64.8109 117.841 64.8787 117.813 64.9126C117.801 64.9239 117.784 64.9352 117.762 64.9465C117.705 64.9691 117.612 64.9916 117.482 65.0142C117.459 65.0764 117.436 65.1272 117.414 65.1667C117.391 65.2006 117.368 65.2289 117.346 65.2514C117.323 65.274 117.301 65.2938 117.278 65.3107C117.221 65.3277 117.168 65.3446 117.117 65.3616C117.066 65.3785 117.026 65.3729 116.998 65.3446C116.981 65.339 116.967 65.3305 116.955 65.3192C116.933 65.3079 116.913 65.2769 116.896 65.226C116.839 65.2486 116.788 65.2486 116.743 65.226C116.721 65.2147 116.701 65.2034 116.684 65.1921C116.639 65.1526 116.573 65.082 116.489 64.9804C116.404 64.8787 116.347 64.7403 116.319 64.5652C116.308 64.4805 116.288 64.3902 116.259 64.2942C116.237 64.1925 116.211 64.0908 116.183 63.9892C116.16 63.8819 116.135 63.7802 116.107 63.6842C116.084 63.5826 116.067 63.4894 116.056 63.4047C116.039 63.3256 116.03 63.159 116.03 62.9048C116.036 62.6507 116.044 62.3542 116.056 62.0153C116.073 61.6765 116.093 61.315 116.115 60.931C116.138 60.5469 116.16 60.1855 116.183 59.8466C116.183 59.8014 116.183 59.7534 116.183 59.7026C116.183 59.6518 116.189 59.5953 116.2 59.5332C115.945 59.5219 115.694 59.5162 115.445 59.5162C115.201 59.5162 114.967 59.5162 114.74 59.5162C114.457 59.5162 114.2 59.5191 113.968 59.5247C113.736 59.5247 113.532 59.5275 113.357 59.5332C113.153 59.5388 112.969 59.5445 112.805 59.5501C112.206 59.5501 111.626 59.5671 111.066 59.6009C111.06 59.6857 111.054 59.7591 111.049 59.8212C111.049 59.8833 111.049 59.937 111.049 59.9822V60.1092C111.037 60.6627 111.026 61.1936 111.015 61.7019C111.003 62.2102 110.995 62.6648 110.989 63.0658C110.983 63.4668 110.978 63.8 110.972 64.0654C110.972 64.3309 110.975 64.4975 110.981 64.5652C110.981 64.6217 110.978 64.681 110.972 64.7431C110.966 64.7996 110.955 64.8674 110.938 64.9465C110.927 65.0199 110.907 65.1018 110.879 65.1921C110.822 65.1978 110.768 65.2176 110.718 65.2514C110.695 65.2684 110.672 65.2825 110.65 65.2938C110.599 65.3277 110.551 65.3644 110.505 65.4039C110.466 65.4491 110.429 65.4576 110.395 65.4293C110.35 65.3955 110.293 65.3729 110.225 65.3616C110.163 65.3503 110.084 65.3446 109.988 65.3446C109.942 65.3446 109.894 65.3305 109.843 65.3023C109.792 65.274 109.744 65.243 109.699 65.2091C109.654 65.1695 109.614 65.1272 109.58 65.082C109.546 65.0368 109.527 64.9973 109.521 64.9634C109.51 64.9295 109.495 64.8815 109.478 64.8194C109.462 64.7516 109.445 64.6838 109.428 64.6161C109.416 64.5427 109.405 64.4749 109.394 64.4128C109.382 64.345 109.374 64.297 109.368 64.2687C109.362 64.2405 109.362 64.0993 109.368 63.8452C109.374 63.591 109.385 63.2578 109.402 62.8455C109.419 62.4276 109.439 61.9504 109.462 61.4138C109.484 60.8717 109.51 60.3013 109.538 59.7026C109.323 59.7252 109.142 59.745 108.995 59.7619C108.848 59.7732 108.757 59.7845 108.723 59.7958C108.661 59.8071 108.61 59.8212 108.57 59.8381C108.536 59.8494 108.505 59.8607 108.477 59.872C108.454 59.8833 108.432 59.8918 108.409 59.8974C108.387 59.8974 108.364 59.8918 108.341 59.8805C108.307 59.8805 108.273 59.8607 108.239 59.8212C108.211 59.776 108.191 59.7252 108.18 59.6687C108.118 59.6574 108.075 59.6377 108.053 59.6094C108.036 59.5755 108.022 59.5501 108.01 59.5332C108.01 59.488 108.03 59.4569 108.07 59.44C108.115 59.4174 108.183 59.3609 108.273 59.2706C108.313 59.231 108.37 59.1943 108.443 59.1604C108.522 59.1209 108.604 59.0842 108.689 59.0503C108.774 59.0164 108.856 58.9882 108.935 58.9656C109.02 58.9373 109.094 58.9176 109.156 58.9063L109.572 58.8385C109.606 58.285 109.64 57.7796 109.674 57.3221C109.708 56.8646 109.739 56.4411 109.767 56.0514C109.795 55.6617 109.818 55.3002 109.835 54.967C109.858 54.6282 109.869 54.3006 109.869 53.9843C109.869 53.894 109.866 53.8093 109.86 53.7302C109.855 53.6511 109.852 53.5664 109.852 53.476C109.852 53.4083 109.869 53.3518 109.903 53.3066C109.942 53.2558 109.991 53.2247 110.047 53.2134H110.149C110.211 53.2134 110.327 53.2219 110.497 53.2388C110.52 53.1824 110.545 53.1457 110.573 53.1287C110.59 53.1174 110.604 53.1118 110.616 53.1118C110.661 53.1118 110.698 53.1231 110.726 53.1457C110.76 53.1626 110.783 53.1795 110.794 53.1965C110.794 53.2078 110.797 53.2191 110.802 53.2304C110.808 53.2473 110.817 53.2727 110.828 53.3066C110.873 53.3179 110.907 53.3292 110.93 53.3405C110.952 53.3518 110.972 53.3631 110.989 53.3744C111.006 53.3913 111.02 53.4026 111.032 53.4083L111.057 53.4591C111.074 53.493 111.091 53.5579 111.108 53.6539C111.148 53.7387 111.173 53.798 111.184 53.8318C111.19 53.8544 111.193 53.8686 111.193 53.8742C111.193 53.8855 111.196 53.8996 111.201 53.9166C111.201 53.9279 111.201 53.9391 111.201 53.9504C111.207 53.9617 111.21 53.973 111.21 53.9843L111.082 58.6098Z" fill="white"/>
<path d="M125.391 61.7527C125.391 62.3457 125.304 62.8794 125.128 63.3538C124.958 63.8282 124.724 64.232 124.424 64.5652C124.13 64.8985 123.787 65.1554 123.397 65.3362C123.006 65.5169 122.593 65.6072 122.158 65.6072C121.977 65.6072 121.779 65.5847 121.564 65.5395C121.349 65.4999 121.134 65.4322 120.919 65.3362C120.704 65.2401 120.494 65.1131 120.291 64.9549C120.087 64.7968 119.906 64.602 119.748 64.3704C119.589 64.1388 119.462 63.8678 119.366 63.5571C119.275 63.2465 119.233 62.8879 119.238 62.4813C119.238 62.0181 119.295 61.5974 119.408 61.219C119.521 60.835 119.665 60.4933 119.841 60.1939C120.022 59.889 120.226 59.6264 120.452 59.4061C120.678 59.1858 120.905 59.0023 121.131 58.8554C121.357 58.703 121.575 58.59 121.784 58.5166C121.994 58.4432 122.175 58.4008 122.328 58.3895C122.407 58.3839 122.441 58.3923 122.429 58.4149C122.424 58.4375 122.404 58.4629 122.37 58.4912C122.336 58.5194 122.305 58.5477 122.277 58.5759C122.254 58.6041 122.265 58.6211 122.311 58.6267C122.35 58.638 122.381 58.6493 122.404 58.6606C122.432 58.6719 122.46 58.686 122.489 58.703L122.557 58.6267C122.596 58.5985 122.633 58.5844 122.667 58.5844C122.707 58.5844 122.741 58.59 122.769 58.6013C122.797 58.607 122.82 58.6098 122.837 58.6098C122.854 58.6098 122.865 58.5928 122.871 58.5589C122.882 58.4968 122.902 58.4629 122.93 58.4573C122.964 58.446 123.038 58.4403 123.151 58.4403C123.219 58.4403 123.32 58.4601 123.456 58.4996C123.598 58.5392 123.75 58.607 123.915 58.703C124.084 58.799 124.254 58.9289 124.424 59.0927C124.599 59.2508 124.758 59.4541 124.899 59.7026C125.046 59.9455 125.165 60.2363 125.255 60.5752C125.346 60.914 125.391 61.3065 125.391 61.7527ZM122.328 59.2706C122.13 59.3892 121.934 59.5501 121.742 59.7534C121.55 59.9567 121.374 60.1911 121.216 60.4566C121.063 60.722 120.939 61.0185 120.842 61.3461C120.746 61.6736 120.698 62.0181 120.698 62.3796C120.698 62.7693 120.732 63.1223 120.8 63.4385C120.873 63.7548 120.978 64.0259 121.114 64.2518C121.25 64.4721 121.414 64.6443 121.606 64.7686C121.804 64.8872 122.028 64.9465 122.277 64.9465C122.497 64.9465 122.715 64.8843 122.93 64.7601C123.151 64.6358 123.346 64.4495 123.516 64.201C123.685 63.9525 123.821 63.6447 123.923 63.2776C124.031 62.9105 124.084 62.4841 124.084 61.9984C124.084 61.507 124.019 61.0948 123.889 60.7615C123.759 60.4283 123.612 60.1601 123.448 59.9567C123.289 59.7478 123.137 59.6009 122.99 59.5162C122.842 59.4259 122.752 59.3807 122.718 59.3807C122.639 59.3807 122.576 59.3807 122.531 59.3807C122.492 59.3807 122.424 59.344 122.328 59.2706Z" fill="white"/>
<path d="M135.007 64.7516C135.024 64.7968 135.035 64.8335 135.041 64.8618C135.052 64.89 135.058 64.9182 135.058 64.9465C135.058 64.9973 135.035 65.0284 134.99 65.0397C134.95 65.0453 134.908 65.0538 134.863 65.0651C134.851 65.0707 134.84 65.099 134.829 65.1498C134.817 65.195 134.8 65.2458 134.778 65.3023C134.761 65.3587 134.73 65.4096 134.684 65.4548C134.645 65.4999 134.588 65.5225 134.515 65.5225C134.277 65.5056 134.09 65.4519 133.954 65.3616C133.819 65.2769 133.717 65.1583 133.649 65.0058C133.581 64.8533 133.539 64.6726 133.522 64.4636C133.505 64.249 133.496 64.0118 133.496 63.752C133.496 63.447 133.508 63.1279 133.53 62.7947C133.558 62.4615 133.59 62.1367 133.624 61.8205C133.657 61.5042 133.686 61.2077 133.708 60.931C133.737 60.6486 133.751 60.4086 133.751 60.2109C133.751 59.9229 133.725 59.6998 133.674 59.5416C133.629 59.3835 133.564 59.3044 133.479 59.3044C133.44 59.3044 133.338 59.423 133.174 59.6602C133.01 59.8918 132.812 60.2448 132.58 60.7192C132.353 61.1936 132.107 61.7894 131.841 62.5067C131.581 63.2239 131.332 64.0654 131.094 65.0312C131.083 65.0707 131.077 65.1131 131.077 65.1583C131.077 65.2034 131.075 65.2458 131.069 65.2853C131.063 65.3192 131.049 65.3475 131.027 65.37C131.01 65.3983 130.981 65.4124 130.942 65.4124C130.862 65.4124 130.8 65.3955 130.755 65.3616C130.71 65.3333 130.67 65.3023 130.636 65.2684C130.602 65.2289 130.571 65.195 130.543 65.1667C130.514 65.1328 130.478 65.1159 130.432 65.1159C130.415 65.1159 130.401 65.1272 130.39 65.1498C130.379 65.1724 130.365 65.2006 130.348 65.2345C130.331 65.2627 130.311 65.2882 130.288 65.3107C130.266 65.3333 130.234 65.3446 130.195 65.3446C130.161 65.3446 130.124 65.339 130.084 65.3277C130.045 65.3107 130.005 65.274 129.966 65.2176C129.926 65.1554 129.892 65.0679 129.864 64.9549C129.841 64.8363 129.83 64.6782 129.83 64.4805V64.0993C129.83 64.0202 129.838 63.8988 129.855 63.735C129.872 63.5656 129.889 63.3708 129.906 63.1505C129.929 62.9302 129.952 62.693 129.974 62.4389C130.002 62.1791 130.025 61.9165 130.042 61.651C130.065 61.3856 130.082 61.1258 130.093 60.8717C130.11 60.6175 130.118 60.386 130.118 60.177C130.118 59.5388 130.039 59.2197 129.881 59.2197C129.841 59.2197 129.796 59.2338 129.745 59.2621C129.694 59.2903 129.632 59.3496 129.558 59.44C129.49 59.5247 129.408 59.6489 129.312 59.8127C129.222 59.9709 129.117 60.1855 128.998 60.4566C128.885 60.722 128.752 61.0496 128.599 61.4393C128.452 61.8233 128.288 62.2864 128.107 62.8286C128.067 62.9472 128.022 63.1223 127.971 63.3538C127.926 63.5797 127.884 63.8113 127.844 64.0485C127.804 64.2857 127.77 64.5059 127.742 64.7093C127.719 64.9069 127.708 65.0368 127.708 65.099C127.708 65.1159 127.677 65.1441 127.615 65.1837C127.558 65.2176 127.49 65.2514 127.411 65.2853C127.332 65.3192 127.25 65.3475 127.165 65.37C127.086 65.3983 127.024 65.4124 126.978 65.4124C126.882 65.4124 126.809 65.3842 126.758 65.3277C126.707 65.2769 126.667 65.1808 126.639 65.0397C126.616 64.8928 126.602 64.6951 126.596 64.4466C126.596 64.1925 126.596 63.8678 126.596 63.4724C126.596 63.3708 126.599 63.1703 126.605 62.8709C126.616 62.5716 126.633 62.2271 126.656 61.8374C126.678 61.4477 126.707 61.0411 126.741 60.6175C126.775 60.1883 126.814 59.7958 126.86 59.44C126.905 59.0842 126.959 58.7905 127.021 58.5589C127.083 58.3274 127.154 58.2116 127.233 58.2116C127.273 58.2116 127.309 58.2257 127.343 58.254C127.377 58.2822 127.408 58.3133 127.437 58.3472C127.465 58.3754 127.49 58.4036 127.513 58.4319C127.541 58.4601 127.57 58.4742 127.598 58.4742C127.62 58.4742 127.643 58.4629 127.666 58.4403C127.694 58.4178 127.717 58.3923 127.734 58.3641C127.756 58.3302 127.776 58.302 127.793 58.2794C127.816 58.2568 127.833 58.2455 127.844 58.2455C127.861 58.2455 127.886 58.2737 127.92 58.3302C127.954 58.3867 127.985 58.4545 128.014 58.5335C128.048 58.607 128.076 58.686 128.099 58.7707C128.127 58.8498 128.141 58.9119 128.141 58.9571C128.141 59.0701 128.13 59.231 128.107 59.44C128.09 59.6489 128.067 59.8805 128.039 60.1346C128.017 60.3831 127.994 60.6373 127.971 60.8971C127.954 61.1569 127.946 61.3969 127.946 61.6172V61.651C128.019 61.4082 128.104 61.1597 128.2 60.9056C128.302 60.6458 128.413 60.3944 128.531 60.1516C128.65 59.9031 128.775 59.6687 128.905 59.4485C129.041 59.2282 129.182 59.0362 129.329 58.8724C129.476 58.7086 129.626 58.5787 129.779 58.4827C129.932 58.3867 130.087 58.3387 130.246 58.3387C130.438 58.3387 130.602 58.3726 130.738 58.4403C130.879 58.5025 130.993 58.5928 131.077 58.7114C131.162 58.8244 131.225 58.9571 131.264 59.1096C131.304 59.2564 131.324 59.4146 131.324 59.584C131.324 59.7308 131.312 59.9003 131.29 60.0923C131.273 60.2843 131.253 60.4989 131.23 60.7361C131.208 60.9677 131.185 61.2246 131.162 61.507C131.145 61.7838 131.134 62.0859 131.128 62.4135C131.202 62.2102 131.29 61.9673 131.391 61.6849C131.499 61.3969 131.615 61.1004 131.739 60.7954C131.87 60.4905 132.005 60.1883 132.147 59.889C132.294 59.5896 132.441 59.3214 132.588 59.0842C132.735 58.847 132.882 58.655 133.029 58.5081C133.182 58.3613 133.326 58.2879 133.462 58.2879C133.502 58.2879 133.59 58.302 133.725 58.3302C133.867 58.3528 134.014 58.3895 134.167 58.4403C134.325 58.4855 134.472 58.5448 134.608 58.6182C134.744 58.686 134.834 58.7651 134.88 58.8554C134.925 58.9515 134.964 59.087 134.998 59.2621C135.038 59.4315 135.058 59.6602 135.058 59.9483C135.058 60.2024 135.038 60.5074 134.998 60.8632C134.964 61.2134 134.902 61.6369 134.812 62.1339C134.783 62.2977 134.764 62.4558 134.752 62.6083C134.747 62.7608 134.744 62.9105 134.744 63.0573C134.744 63.2719 134.752 63.4724 134.769 63.6588C134.792 63.8452 134.817 64.0118 134.846 64.1586C134.874 64.3055 134.902 64.4325 134.93 64.5398C134.959 64.6415 134.984 64.7121 135.007 64.7516Z" fill="white"/>
<path d="M141.966 62.2356C141.966 62.2977 141.969 62.3711 141.975 62.4558C141.98 62.5406 141.983 62.6366 141.983 62.7439C141.983 62.8794 141.963 63.0488 141.924 63.2522C141.884 63.4498 141.819 63.6588 141.728 63.8791C141.644 64.0993 141.528 64.3196 141.38 64.5398C141.233 64.7601 141.052 64.9578 140.837 65.1328C140.622 65.3079 140.368 65.4491 140.073 65.5564C139.785 65.6694 139.454 65.7258 139.081 65.7258C138.747 65.7258 138.404 65.6609 138.054 65.531C137.708 65.4068 137.392 65.2119 137.103 64.9465C136.82 64.6754 136.585 64.3337 136.399 63.9214C136.218 63.5035 136.127 63.0065 136.127 62.4304C136.127 62.069 136.172 61.7132 136.263 61.363C136.359 61.0129 136.484 60.6825 136.636 60.3719C136.795 60.0612 136.979 59.776 137.188 59.5162C137.403 59.2508 137.626 59.0249 137.858 58.8385C138.096 58.6465 138.339 58.4968 138.588 58.3895C138.843 58.2822 139.089 58.2286 139.327 58.2286C139.74 58.2286 140.079 58.2935 140.345 58.4234C140.617 58.5533 140.832 58.7143 140.99 58.9063C141.148 59.0983 141.259 59.3044 141.321 59.5247C141.389 59.7393 141.423 59.9342 141.423 60.1092C141.423 60.2787 141.38 60.4735 141.296 60.6938C141.216 60.9084 141.083 61.1145 140.897 61.3122C140.71 61.5042 140.467 61.668 140.167 61.8035C139.867 61.9334 139.499 61.9984 139.064 61.9984C138.832 61.9984 138.622 61.9673 138.436 61.9052C138.254 61.8374 138.093 61.7555 137.952 61.6595C137.81 61.5579 137.689 61.4506 137.587 61.3376C137.491 61.219 137.409 61.1089 137.341 61.0072C137.239 61.3574 137.188 61.7668 137.188 62.2356C137.188 62.5575 137.233 62.8484 137.324 63.1081C137.42 63.3623 137.55 63.5797 137.714 63.7605C137.878 63.9412 138.073 64.0795 138.3 64.1756C138.526 64.2716 138.775 64.3196 139.047 64.3196C139.386 64.3196 139.683 64.2631 139.938 64.1501C140.192 64.0315 140.413 63.8847 140.6 63.7096C140.792 63.5345 140.956 63.3454 141.092 63.142C141.233 62.9331 141.355 62.7439 141.457 62.5744C141.559 62.3994 141.646 62.2553 141.72 62.1424C141.799 62.0294 141.876 61.9758 141.949 61.9814C141.983 61.9814 142 62.0097 142 62.0662C142 62.0944 141.997 62.1226 141.992 62.1509C141.986 62.1791 141.977 62.2073 141.966 62.2356ZM139.412 59.0842C139.31 59.0842 139.177 59.1068 139.013 59.152C138.854 59.1915 138.684 59.2649 138.503 59.3722C138.328 59.4795 138.153 59.6264 137.977 59.8127C137.802 59.9935 137.649 60.225 137.519 60.5074C137.598 60.4679 137.666 60.434 137.723 60.4057C137.785 60.3775 137.827 60.3634 137.85 60.3634C137.861 60.3634 137.878 60.3747 137.901 60.3973C138.031 60.6175 138.192 60.7757 138.385 60.8717C138.583 60.962 138.803 61.0072 139.047 61.0072C139.239 61.0072 139.403 60.9762 139.539 60.914C139.68 60.8463 139.796 60.7615 139.887 60.6599C139.977 60.5582 140.042 60.4481 140.082 60.3295C140.122 60.2052 140.141 60.0838 140.141 59.9652C140.141 59.7111 140.076 59.5021 139.946 59.3383C139.816 59.1689 139.638 59.0842 139.412 59.0842Z" fill="white"/>
<defs>
<clipPath id="clip0_319_1006">
<rect width="78.6494" height="66.1683" fill="white" transform="translate(22 11)"/>
</clipPath>
</defs>
</svg>
